# xmcd CD database file
#
# Track frame offsets:
#	150
#	3157
#	6839
#	30974
#	51120
#	70881
#	84557
#	107966
#	123671
#
# Disc length: 2254 seconds
#
# Revision: 0
# Processed by: cddbd v1.4PL0 Copyright (c) Steve Scherf et al.
# Submitted via: CDex 1.50beta9
#
DISCID=6908cc09
DTITLE=Friedrich Gulda - At Birdland
DYEAR=1956
DGENRE=Jazz
TTITLE0=Theme Song: Vienna Discussion
TTITLE1=Pee Wee Marquette's Introduces Friedrich Gulda and His Sextett
TTITLE2=Scruby
TTITLE3=Dark Glow
TTITLE4=Night in Tunisia
TTITLE5=Dodo
TTITLE6=Air from other planets
TTITLE7=New Shoes
TTITLE8=Bernie's Tune
EXTD=YEAR: 1956
EXTT0=
EXTT1=
EXTT2=
EXTT3=
EXTT4=
EXTT5=
EXTT6=
EXTT7=
EXTT8=
PLAYORDER=
